<svg xmlns="http://www.w3.org/2000/svg" width="1060" height="590" viewBox="0 0 1060 590" role="img">
<style>
text{font-family:Inter,Segoe UI,Arial,sans-serif;fill:#17202a}
.title{font-size:26px;font-weight:700}
.subtitle{font-size:14px;fill:#52616f}
.axis{font-size:12px;fill:#52616f}
.tick{font-size:11px;fill:#52616f}
.legend{font-size:13px;fill:#17202a}
.note{font-size:12px;fill:#52616f}
.grid{stroke:#dce3ea;stroke-width:1}
.axis-line{stroke:#6b7a89;stroke-width:1.2}
</style>
<rect width="100%" height="100%" fill="#ffffff"/>
<text x="88" y="40" class="title">HIP vs Vulkan token generation</text>
<text x="88" y="64" class="subtitle">Local existing-build spot check at tg128. Vulkan remains the faster generation path here.</text>
<line x1="88" y1="468.0" x2="1018" y2="468.0" class="grid"/>
<text x="78" y="472.0" text-anchor="end" class="tick">0</text>
<line x1="88" y1="392.8" x2="1018" y2="392.8" class="grid"/>
<text x="78" y="396.8" text-anchor="end" class="tick">40</text>
<line x1="88" y1="317.6" x2="1018" y2="317.6" class="grid"/>
<text x="78" y="321.6" text-anchor="end" class="tick">80</text>
<line x1="88" y1="242.4" x2="1018" y2="242.4" class="grid"/>
<text x="78" y="246.4" text-anchor="end" class="tick">120</text>
<line x1="88" y1="167.2" x2="1018" y2="167.2" class="grid"/>
<text x="78" y="171.2" text-anchor="end" class="tick">160</text>
<line x1="88" y1="92.0" x2="1018" y2="92.0" class="grid"/>
<text x="78" y="96.0" text-anchor="end" class="tick">200</text>
<line x1="88" y1="92" x2="88" y2="468" class="axis-line"/>
<line x1="88" y1="468" x2="1018" y2="468" class="axis-line"/>
<text x="22" y="280.0" class="axis" transform="rotate(-90 22 280.0)">generation tokens/s</text>
<text x="320.5" y="496" text-anchor="middle" class="tick">Qwen3.6</text>
<rect x="274.5" y="351.0" width="42.0" height="117.0" fill="#1f77b4"/>
<text x="295.5" y="344.0" text-anchor="middle" class="tick">62</text>
<rect x="324.5" y="368.9" width="42.0" height="99.1" fill="#d62728"/>
<text x="345.5" y="361.9" text-anchor="middle" class="tick">53</text>
<text x="785.5" y="496" text-anchor="middle" class="tick">Qwen3-Coder</text>
<rect x="739.5" y="291.9" width="42.0" height="176.1" fill="#1f77b4"/>
<text x="760.5" y="284.9" text-anchor="middle" class="tick">94</text>
<rect x="789.5" y="332.3" width="42.0" height="135.7" fill="#d62728"/>
<text x="810.5" y="325.3" text-anchor="middle" class="tick">72</text>
<rect x="88" y="534" width="14" height="14" fill="#1f77b4"/>
<text x="110" y="546" class="legend">Vulkan RADV tg128</text>
<rect x="278" y="534" width="14" height="14" fill="#d62728"/>
<text x="300" y="546" class="legend">ROCm HIP tg128</text>
<text x="88" y="576" class="note">Source: data/backend_crossover.csv</text>
</svg>
