<svg xmlns="http://www.w3.org/2000/svg" width="980" height="560" viewBox="0 0 980 560" role="img">
<style>
text{font-family:Inter,Segoe UI,Arial,sans-serif;fill:#17202a}
.title{font-size:26px;font-weight:700}
.subtitle{font-size:14px;fill:#52616f}
.axis{font-size:12px;fill:#52616f}
.tick{font-size:11px;fill:#52616f}
.legend{font-size:13px;fill:#17202a}
.note{font-size:12px;fill:#52616f}
.grid{stroke:#dce3ea;stroke-width:1}
.axis-line{stroke:#6b7a89;stroke-width:1.2}
</style>
<rect width="100%" height="100%" fill="#ffffff"/>
<text x="82" y="40" class="title">Long-context prompt processing</text>
<text x="82" y="64" class="subtitle">Vulkan RADV llama-bench prompt processing; not decode after a filled KV cache</text>
<line x1="82" y1="468.0" x2="938" y2="468.0" class="grid"/>
<text x="72" y="472.0" text-anchor="end" class="tick">0</text>
<line x1="82" y1="392.8" x2="938" y2="392.8" class="grid"/>
<text x="72" y="396.8" text-anchor="end" class="tick">400</text>
<line x1="82" y1="317.6" x2="938" y2="317.6" class="grid"/>
<text x="72" y="321.6" text-anchor="end" class="tick">800</text>
<line x1="82" y1="242.4" x2="938" y2="242.4" class="grid"/>
<text x="72" y="246.4" text-anchor="end" class="tick">1200</text>
<line x1="82" y1="167.2" x2="938" y2="167.2" class="grid"/>
<text x="72" y="171.2" text-anchor="end" class="tick">1600</text>
<line x1="82" y1="92.0" x2="938" y2="92.0" class="grid"/>
<text x="72" y="96.0" text-anchor="end" class="tick">2000</text>
<line x1="82" y1="92" x2="82" y2="468" class="axis-line"/>
<line x1="82" y1="468" x2="938" y2="468" class="axis-line"/>
<text x="20" y="280.0" class="axis" transform="rotate(-90 20 280.0)">prompt eval tokens/s</text>
<text x="82.0" y="494" text-anchor="middle" class="tick">4K</text>
<text x="296.0" y="494" text-anchor="middle" class="tick">8K</text>
<text x="510.0" y="494" text-anchor="middle" class="tick">16K</text>
<text x="724.0" y="494" text-anchor="middle" class="tick">32K</text>
<text x="938.0" y="494" text-anchor="middle" class="tick">64K</text>
<polyline fill="none" stroke="#1f77b4" stroke-width="3" points="82.0,328.6 296.0,329.7 510.0,336.3 724.0,346.8 938.0,365.7"/>
<circle cx="82.0" cy="328.6" r="4.5" fill="#1f77b4"/>
<text x="82.0" y="319.6" text-anchor="middle" class="tick">741.7</text>
<circle cx="296.0" cy="329.7" r="4.5" fill="#1f77b4"/>
<text x="296.0" y="320.7" text-anchor="middle" class="tick">735.5</text>
<circle cx="510.0" cy="336.3" r="4.5" fill="#1f77b4"/>
<text x="510.0" y="327.3" text-anchor="middle" class="tick">700.5</text>
<circle cx="724.0" cy="346.8" r="4.5" fill="#1f77b4"/>
<text x="724.0" y="337.8" text-anchor="middle" class="tick">644.8</text>
<circle cx="938.0" cy="365.7" r="4.5" fill="#1f77b4"/>
<text x="938.0" y="356.7" text-anchor="middle" class="tick">543.9</text>
<rect x="82" y="514" width="18" height="4" fill="#1f77b4"/>
<text x="108" y="520" class="legend">Qwen3-Next 80B-A3B</text>
<polyline fill="none" stroke="#d62728" stroke-width="3" points="82.0,264.6 296.0,263.2 510.0,275.4 724.0,297.2 938.0,328.8"/>
<circle cx="82.0" cy="264.6" r="4.5" fill="#d62728"/>
<text x="82.0" y="255.6" text-anchor="middle" class="tick">1081.9</text>
<circle cx="296.0" cy="263.2" r="4.5" fill="#d62728"/>
<text x="296.0" y="254.2" text-anchor="middle" class="tick">1089.5</text>
<circle cx="510.0" cy="275.4" r="4.5" fill="#d62728"/>
<text x="510.0" y="266.4" text-anchor="middle" class="tick">1024.6</text>
<circle cx="724.0" cy="297.2" r="4.5" fill="#d62728"/>
<text x="724.0" y="288.2" text-anchor="middle" class="tick">908.6</text>
<circle cx="938.0" cy="328.8" r="4.5" fill="#d62728"/>
<text x="938.0" y="319.8" text-anchor="middle" class="tick">740.2</text>
<rect x="302" y="514" width="18" height="4" fill="#d62728"/>
<text x="328" y="520" class="legend">Qwen3.6 35B-A3B</text>
<text x="82" y="548" class="note">Source: data/long_context.csv</text>
</svg>
