<svg xmlns="http://www.w3.org/2000/svg" width="980" height="560" viewBox="0 0 980 560" role="img">
<style>
text{font-family:Inter,Segoe UI,Arial,sans-serif;fill:#17202a}
.title{font-size:26px;font-weight:700}
.subtitle{font-size:14px;fill:#52616f}
.axis{font-size:12px;fill:#52616f}
.tick{font-size:11px;fill:#52616f}
.legend{font-size:13px;fill:#17202a}
.note{font-size:12px;fill:#52616f}
.grid{stroke:#dce3ea;stroke-width:1}
.axis-line{stroke:#6b7a89;stroke-width:1.2}
</style>
<rect width="100%" height="100%" fill="#ffffff"/>
<text x="82" y="40" class="title">llama-server multi-user aggregate throughput</text>
<text x="82" y="64" class="subtitle">Vulkan RADV, llama.cpp b9010, continuous batching, 128 generated tokens/request</text>
<line x1="82" y1="468.0" x2="938" y2="468.0" class="grid"/>
<text x="72" y="472.0" text-anchor="end" class="tick">0</text>
<line x1="82" y1="392.8" x2="938" y2="392.8" class="grid"/>
<text x="72" y="396.8" text-anchor="end" class="tick">40</text>
<line x1="82" y1="317.6" x2="938" y2="317.6" class="grid"/>
<text x="72" y="321.6" text-anchor="end" class="tick">80</text>
<line x1="82" y1="242.4" x2="938" y2="242.4" class="grid"/>
<text x="72" y="246.4" text-anchor="end" class="tick">120</text>
<line x1="82" y1="167.2" x2="938" y2="167.2" class="grid"/>
<text x="72" y="171.2" text-anchor="end" class="tick">160</text>
<line x1="82" y1="92.0" x2="938" y2="92.0" class="grid"/>
<text x="72" y="96.0" text-anchor="end" class="tick">200</text>
<line x1="82" y1="92" x2="82" y2="468" class="axis-line"/>
<line x1="82" y1="468" x2="938" y2="468" class="axis-line"/>
<text x="20" y="280.0" class="axis" transform="rotate(-90 20 280.0)">aggregate generation tokens/s</text>
<text x="82.0" y="494" text-anchor="middle" class="tick">-np 1</text>
<text x="296.0" y="494" text-anchor="middle" class="tick">-np 2</text>
<text x="510.0" y="494" text-anchor="middle" class="tick">-np 4</text>
<text x="724.0" y="494" text-anchor="middle" class="tick">-np 8</text>
<text x="938.0" y="494" text-anchor="middle" class="tick">-np 16</text>
<polyline fill="none" stroke="#1f77b4" stroke-width="3" points="82.0,298.4 296.0,239.3 510.0,172.1 724.0,142.5 938.0,224.4"/>
<circle cx="82.0" cy="298.4" r="4.5" fill="#1f77b4"/>
<text x="82.0" y="289.4" text-anchor="middle" class="tick">90.2</text>
<circle cx="296.0" cy="239.3" r="4.5" fill="#1f77b4"/>
<text x="296.0" y="230.3" text-anchor="middle" class="tick">121.7</text>
<circle cx="510.0" cy="172.1" r="4.5" fill="#1f77b4"/>
<text x="510.0" y="163.1" text-anchor="middle" class="tick">157.4</text>
<circle cx="724.0" cy="142.5" r="4.5" fill="#1f77b4"/>
<text x="724.0" y="133.5" text-anchor="middle" class="tick">173.2</text>
<circle cx="938.0" cy="224.4" r="4.5" fill="#1f77b4"/>
<text x="938.0" y="215.4" text-anchor="middle" class="tick">129.6</text>
<rect x="82" y="514" width="18" height="4" fill="#1f77b4"/>
<text x="108" y="520" class="legend">Qwen3-Coder 30B-A3B</text>
<polyline fill="none" stroke="#d62728" stroke-width="3" points="82.0,356.7 296.0,294.6 510.0,222.1 724.0,163.5 938.0,156.0"/>
<circle cx="82.0" cy="356.7" r="4.5" fill="#d62728"/>
<text x="82.0" y="347.7" text-anchor="middle" class="tick">59.2</text>
<circle cx="296.0" cy="294.6" r="4.5" fill="#d62728"/>
<text x="296.0" y="285.6" text-anchor="middle" class="tick">92.2</text>
<circle cx="510.0" cy="222.1" r="4.5" fill="#d62728"/>
<text x="510.0" y="213.1" text-anchor="middle" class="tick">130.8</text>
<circle cx="724.0" cy="163.5" r="4.5" fill="#d62728"/>
<text x="724.0" y="154.5" text-anchor="middle" class="tick">162.0</text>
<circle cx="938.0" cy="156.0" r="4.5" fill="#d62728"/>
<text x="938.0" y="147.0" text-anchor="middle" class="tick">166.0</text>
<rect x="302" y="514" width="18" height="4" fill="#d62728"/>
<text x="328" y="520" class="legend">Qwen3.6 35B-A3B</text>
<text x="82" y="548" class="note">Source: data/multi_user.csv</text>
</svg>
